<svg xmlns="http://www.w3.org/2000/svg" viewBox="0 0 100 100">
  <defs>
    <radialGradient id="orb" cx="38%" cy="32%" r="80%">
      <stop offset="0%" stop-color="#a7e5d3"/>
      <stop offset="48%" stop-color="#c8b8e0"/>
      <stop offset="100%" stop-color="#a8c8e8"/>
    </radialGradient>
    <radialGradient id="glow" cx="34%" cy="28%" r="45%">
      <stop offset="0%" stop-color="#ffffff" stop-opacity="0.45"/>
      <stop offset="100%" stop-color="#ffffff" stop-opacity="0"/>
    </radialGradient>
  </defs>
  <rect width="100" height="100" rx="22" fill="#16161a"/>
  <path d="M50 10c11.5 0 23 5.2 29.3 13.6s9.4 17.8 7.3 28.3-8.4 19.9-16.7 26.1-19.9 8.4-30.4 5.2-18.8-11.5-23-20.9-4.2-22 1-31.4S38.5 10 50 10z" fill="url(#orb)"/>
  <path d="M50 10c11.5 0 23 5.2 29.3 13.6s9.4 17.8 7.3 28.3-8.4 19.9-16.7 26.1-19.9 8.4-30.4 5.2-18.8-11.5-23-20.9-4.2-22 1-31.4S38.5 10 50 10z" fill="url(#glow)"/>
  <text x="50" y="73" font-family="-apple-system, BlinkMacSystemFont, 'Segoe UI', Helvetica, Arial, sans-serif" font-size="58" font-weight="800" fill="#0a1220" text-anchor="middle">A</text>
</svg>
